<?xml version="1.0" encoding="UTF-8"?>
<svg version="1.1" xmlns="http://www.w3.org/2000/svg" width="225" height="225">
<path d="M0 0 C74.25 0 148.5 0 225 0 C225 74.25 225 148.5 225 225 C150.75 225 76.5 225 0 225 C0 150.75 0 76.5 0 0 Z " fill="#FEFEFE" transform="translate(0,0)"/>
<path d="M0 0 C9.24 0 18.48 0 28 0 C29.4025 3.403125 30.805 6.80625 32.25 10.3125 C32.9001709 11.88511597 32.9001709 11.88511597 33.56347656 13.48950195 C35.86412379 19.09354905 38.02540165 24.72796159 40.07080078 30.42993164 C41.42151257 34.1658599 42.86180528 37.86449123 44.3125 41.5625 C44.91938759 43.11453768 45.52615475 44.66662246 46.1328125 46.21875 C46.43993164 47.00378906 46.74705078 47.78882813 47.06347656 48.59765625 C48.00417102 51.01069938 48.93687243 53.42668797 49.8671875 55.84375 C52.49352419 62.65727366 55.11889391 69.4300533 58.171875 76.06640625 C59.38261787 78.89337663 60.27990497 81.80445107 61.20703125 84.734375 C62.05539983 87.15828522 63.09195807 89.4282199 64.1875 91.75 C65.67329284 94.97580878 66.46632252 97.38600045 66 101 C66.66 101 67.32 101 68 101 C68.34933594 101.91523437 68.69867188 102.83046875 69.05859375 103.7734375 C69.51363281 104.96195312 69.96867187 106.15046875 70.4375 107.375 C70.88996094 108.55835938 71.34242187 109.74171875 71.80859375 110.9609375 C72.89271912 113.86036193 72.89271912 113.86036193 74 116 C74.36351563 114.83984375 74.36351563 114.83984375 74.734375 113.65625 C76.48583014 108.21326634 78.31318277 103.08653857 81.00756836 98.04370117 C81.99502139 96.01025237 82.70807749 94.02833369 83.390625 91.875 C85.00642102 86.91857978 86.82137282 82.05441148 88.6875 77.1875 C89.03200195 76.28531738 89.37650391 75.38313477 89.73144531 74.45361328 C92.50583872 67.21830717 95.37581874 60.02334507 98.2734375 52.83666992 C100.31617411 47.75678682 102.24563545 42.6520923 104.078125 37.4921875 C105.5005589 33.64679417 107.1162068 29.88585382 108.7109375 26.109375 C110.45454971 21.90357101 112.07696256 17.65520597 113.69140625 13.3984375 C115.41764135 8.91537919 117.21586689 4.46033278 119 0 C128.24 0 137.48 0 147 0 C144.77084583 10.03119376 144.77084583 10.03119376 142.6875 13.75 C140.72297362 17.47286341 139.10009506 21.18167657 137.625 25.125 C135.78555872 30.03017675 133.80728357 34.83699877 131.6875 39.625 C129.08910406 45.49787245 126.54839778 51.39106966 124.0625 57.3125 C123.72814941 58.10809326 123.39379883 58.90368652 123.04931641 59.72338867 C121.37065926 63.72197416 119.6983684 67.72315367 118.03125 71.7265625 C114.21153242 80.87719891 110.27308677 89.96005713 106.14477539 98.97631836 C102.60689463 106.73795422 99.49238429 114.63856896 96.5 122.625 C94.8609968 126.91046709 93.08525014 130.99300173 90.9609375 135.0546875 C89.46543639 138.08216536 88.29097618 141.22792226 87.0625 144.37109375 C85.96870997 147.07741982 84.78325142 149.72368051 83.5625 152.375 C80.13726852 159.81747829 77.03041329 167.38937302 74 175 C71.28005855 171.72480423 69.74706581 168.36114569 68.125 164.4375 C66.2753299 160.00890746 64.38881341 155.60704691 62.375 151.25 C60.07617402 146.22907215 58.01322764 141.14092059 56 136 C52.90775631 128.14054729 49.76492642 120.33914619 46.21484375 112.671875 C44.01569161 107.83515453 42.02435071 102.91174749 40 98 C39.18785821 96.06234982 38.37535621 94.12485058 37.5625 92.1875 C36.18436106 88.89119902 34.83146708 85.58787043 33.52734375 82.26171875 C31.32756706 76.65811424 29.1456735 71.10436903 26.375 65.75 C24.27806683 61.69504721 22.72850467 57.60885342 21.22265625 53.3046875 C17.95324481 44.46787575 14.09062252 35.84132682 10.359375 27.19140625 C7.71853723 21.06883237 5.12402199 14.93171336 2.625 8.75 C2.36187012 8.10514648 2.09874023 7.46029297 1.82763672 6.79589844 C0 2.23602471 0 2.23602471 0 0 Z " fill="#EA651F" transform="translate(38,25)"/>
<path d="M0 0 C9.24 0 18.48 0 28 0 C25.77084583 10.03119376 25.77084583 10.03119376 23.6875 13.75 C21.72297362 17.47286341 20.10009506 21.18167657 18.625 25.125 C16.5308914 30.7092896 14.22562954 36.15790823 11.80834961 41.60668945 C8.99527992 47.96141008 6.31329321 54.36852517 3.66479492 60.79345703 C3.34615479 61.55899902 3.02751465 62.32454102 2.69921875 63.11328125 C2.27902466 64.13095581 2.27902466 64.13095581 1.8503418 65.16918945 C1 67 1 67 -1 70 C-3.61376953 70.34057617 -3.61376953 70.34057617 -6.8828125 70.29296875 C-8.04941406 70.28330078 -9.21601563 70.27363281 -10.41796875 70.26367188 C-12.25294922 70.2259668 -12.25294922 70.2259668 -14.125 70.1875 C-15.35605469 70.17396484 -16.58710938 70.16042969 -17.85546875 70.14648438 C-20.90407843 70.11103543 -23.951825 70.06162079 -27 70 C-23.777967 60.56241399 -20.37432688 51.32294728 -16.3671875 42.1875 C-14.78305989 38.49421964 -13.40233656 34.75855403 -12.05859375 30.97265625 C-10.75909374 27.32350679 -9.41608844 23.69187357 -8.0625 20.0625 C-7.83369141 19.44262207 -7.60488281 18.82274414 -7.36914062 18.18408203 C-5.07578454 12.04161521 -2.52844149 6.06825958 0 0 Z " fill="#365DA5" transform="translate(157,25)"/>
<path d="M0 0 C9.24 0 18.48 0 28 0 C29.4025 3.403125 30.805 6.80625 32.25 10.3125 C32.9001709 11.88511597 32.9001709 11.88511597 33.56347656 13.48950195 C35.86468308 19.09491138 38.02523253 24.73086647 40.07080078 30.43432617 C41.41654054 34.15013781 42.86253945 37.82391094 44.3125 41.5 C48.01590964 50.94965795 51.51437781 60.46789033 55 70 C46.42 70 37.84 70 29 70 C23.43661972 59.98591549 23.43661972 59.98591549 22.1875 56.125 C20.37208621 50.88455453 18.28715883 45.79182742 16.125 40.6875 C15.77606689 39.86362793 15.42713379 39.03975586 15.06762695 38.19091797 C13.50804393 34.52016117 11.93908289 30.85354545 10.359375 27.19140625 C7.71853723 21.06883237 5.12402199 14.93171336 2.625 8.75 C2.36187012 8.10514648 2.09874023 7.46029297 1.82763672 6.79589844 C0 2.23602471 0 2.23602471 0 0 Z " fill="#365DA5" transform="translate(38,25)"/>
<path d="M0 0 C2.44839588 3.67259383 4 6.54648201 4 11 C4.66 11 5.32 11 6 11 C7.36318111 16.255638 6.336196 20.01540945 4.625 25 C-0.95258975 42.66841424 0.16429487 61.70060091 8.72265625 78.3515625 C16.0988241 90.87491706 24.95275231 100.19421593 37.79296875 107.04296875 C45.44314485 111.19919495 50.34544427 114.10435637 53.43359375 122.71484375 C54 125 54 125 54 127 C34.6345405 124.41198928 17.2643307 112.62823716 5.06640625 97.62109375 C3.3341519 95.10595042 1.64834645 92.57113869 0 90 C-0.68578125 88.93523437 -1.3715625 87.87046875 -2.078125 86.7734375 C-14.36566068 66.9422164 -14.94769608 44.92251635 -9.71533203 22.64355469 C-7.59890985 14.82218287 -4.50169076 6.75253614 0 0 Z " fill="#365EA5" transform="translate(42,50)"/>
<path d="M0 0 C3.7430966 3.38257172 5.0919363 7.4235164 7 12 C7.34289062 12.71929687 7.68578125 13.43859375 8.0390625 14.1796875 C16.07176076 31.90067831 16.59846338 55.16508314 10.15185547 73.39892578 C1.16165645 96.13510737 -16.44636102 113.87657977 -38.79296875 123.84375 C-43.18631221 125.42770818 -47.34738266 125.97899496 -52 126 C-51.39893257 121.19146053 -49.9894972 116.833859 -47 113 C-44.47374522 111.28372292 -41.87905041 109.97200147 -39.140625 108.62109375 C-27.78103337 102.75762294 -17.23930542 94.79873713 -11.0078125 83.46875 C-10.67523438 82.9840625 -10.34265625 82.499375 -10 82 C-9.34 82 -8.68 82 -8 82 C-7.9175 81.34 -7.835 80.68 -7.75 80 C-7.08945278 77.35781113 -6.36465405 75.73868496 -5.06640625 73.40625 C-2.76368051 68.86910409 -1.87425643 64.51253822 -1.1875 59.5 C-1.0026001 58.19276978 -1.0026001 58.19276978 -0.81396484 56.85913086 C0.80922258 44.13487407 0.60302718 29.19157944 -5.2421875 17.51953125 C-6.31540828 13.95134877 -5.23445036 12.20240266 -3.6875 8.875 C-3.21699219 7.84117188 -2.74648437 6.80734375 -2.26171875 5.7421875 C-1.63716797 4.38480469 -1.63716797 4.38480469 -1 3 C-0.67 2.01 -0.34 1.02 0 0 Z " fill="#365EA5" transform="translate(180,50)"/>
<path d="M0 0 C1.5 1.375 1.5 1.375 3 3 C3 3.66 3 4.32 3 5 C1.37373596 6.38232443 -0.2925002 7.71937515 -2 9 C-1.51421457 5.87709365 -1.0013988 3.00419641 0 0 Z " fill="#5072AF" transform="translate(180,50)"/>
</svg>
